HIERARCHY
ROOT Hips
{
	OFFSET 0.000000 0.000000 0.000000 
	CHANNELS 6 Xposition Yposition Zposition Zrotation Yrotation Xrotation
	JOINT LeftUpLeg
	{
		OFFSET 1.363060 -1.794630 0.839290 
		CHANNELS 3 Zrotation Yrotation Xrotation
		JOINT LeftLeg
		{
			OFFSET 2.448110 -6.726130 0.000000 
			CHANNELS 3 Zrotation Yrotation Xrotation
			JOINT LeftFoot
			{
				OFFSET 2.562200 -7.039590 0.000000 
				CHANNELS 3 Zrotation Yrotation Xrotation
				JOINT LeftToeBase
				{
					OFFSET 0.157640 -0.433110 2.322550 
					CHANNELS 3 Zrotation Yrotation Xrotation
					End Site
					{
						OFFSET 0.000000 0.000000 0.000000 
					}
				}
			}
		}
	}
	JOINT RightUpLeg
	{
		OFFSET -1.305520 -1.794630 0.839290 
		CHANNELS 3 Zrotation Yrotation Xrotation
		JOINT RightLeg
		{
			OFFSET -2.542530 -6.985550 0.000000 
			CHANNELS 3 Zrotation Yrotation Xrotation
			JOINT RightFoot
			{
				OFFSET -2.568260 -7.056230 0.000000 
				CHANNELS 3 Zrotation Yrotation Xrotation
				JOINT RightToeBase
				{
					OFFSET -0.164730 -0.452590 2.363150 
					CHANNELS 3 Zrotation Yrotation Xrotation
					End Site
					{
						OFFSET 0.000000 0.000000 0.000000 
					}
				}
			}
		}
	}
	JOINT Spine
	{
		OFFSET 0.028270 2.035590 -0.193380 
		CHANNELS 3 Zrotation Yrotation Xrotation
		JOINT Spine1
		{
			OFFSET 0.056720 2.048850 -0.042750 
			CHANNELS 3 Zrotation Yrotation Xrotation
			JOINT Neck1
			{
				OFFSET -0.054170 1.746240 0.172020 
				CHANNELS 3 Zrotation Yrotation Xrotation
				JOINT Head
				{
					OFFSET 0.104070 1.761360 -0.123970 
					CHANNELS 3 Zrotation Yrotation Xrotation
					End Site
					{
						OFFSET 0.000000 0.000000 0.000000 
					}
				}
			}
			JOINT LeftArm
			{
				OFFSET 3.362410 1.200890 -0.311210 
				CHANNELS 3 Zrotation Yrotation Xrotation
				JOINT LeftForeArm
				{
					OFFSET 4.983000 -0.000000 -0.000000 
					CHANNELS 3 Zrotation Yrotation Xrotation
					JOINT LeftHand
					{
						OFFSET 3.483560 -0.000000 -0.000000 
						CHANNELS 3 Zrotation Yrotation Xrotation
						JOINT LeftHandIndex1
						{
							OFFSET 0.715260 -0.000000 -0.000000 
							CHANNELS 3 Zrotation Yrotation Xrotation
							End Site
							{
								OFFSET 0.000000 0.000000 0.000000 
							}
						}
					}
				}
			}
			JOINT RightArm
			{
				OFFSET -3.136600 1.374050 -0.404650 
				CHANNELS 3 Zrotation Yrotation Xrotation
				JOINT RightForeArm
				{
					OFFSET -5.241900 -0.000000 -0.000000 
					CHANNELS 3 Zrotation Yrotation Xrotation
					JOINT RightHand
					{
						OFFSET -3.444170 -0.000000 -0.000000 
						CHANNELS 3 Zrotation Yrotation Xrotation
						JOINT RightHandIndex1
						{
							OFFSET -0.622530 -0.000000 -0.000000 
							CHANNELS 3 Zrotation Yrotation Xrotation
							End Site
							{
								OFFSET 0.000000 0.000000 0.000000 
							}
						}
					}
				}
			}
		}
	}
}
MOTION
Frames: 12
Frame Time: 0.041667
8.497063 18.107414 4.867228 -3.090683 -2.835167 3.747961 -9.738512 3.582754 -3.212460 -0.469233 4.180293 8.606830 0.603793 -1.534305 0.375261 3.622700 11.640700 34.472500 19.469443 -2.497226 -10.982778 -1.598397 -10.228823 25.301881 -0.719865 -6.610141 -21.597954 -0.083400 1.863100 -5.127600 0.561451 1.111091 -3.401090 -1.654701 0.846959 2.725035 6.583159 -6.452204 9.065853 2.280900 -3.085300 1.338100 -77.304354 -5.170531 34.456932 14.136921 -18.932934 -2.332681 0.618775 0.365713 -12.831269 -7.125000 0.000000 0.000000 84.016025 -4.451426 22.990657 -16.697240 20.206986 -4.077376 1.591960 1.126983 -0.920338 7.125000 0.000000 0.000000 
8.497260 18.106035 4.873236 -3.343496 -2.873039 3.780607 -9.393851 3.532026 -3.184562 -0.457431 4.166793 8.600997 0.623130 -1.675385 0.617372 4.107300 12.301900 36.808300 19.885045 -2.549179 -10.989726 -1.618989 -10.312078 25.524231 -0.763764 -6.472553 -22.056798 -0.131800 2.340000 -6.446400 0.625828 1.086314 -3.455587 -1.643018 0.840334 2.670822 6.958345 -6.058914 9.504106 2.421500 -2.876200 1.527800 -77.487728 -4.932936 33.558287 14.069792 -18.843800 -2.300620 0.594178 0.365146 -12.217296 -7.125000 0.000000 0.000000 84.012183 -4.612914 23.095067 -16.706087 20.231234 -4.102327 1.582885 1.161713 -0.887774 7.125000 0.000000 0.000000 
8.496964 18.106429 4.882100 -3.372633 -2.945181 3.749986 -9.350313 3.543579 -3.071871 -0.456151 4.144248 8.541410 0.628101 -1.713061 0.678117 4.309700 12.561600 37.748700 20.035821 -2.613482 -10.909971 -1.626375 -10.350722 25.625880 -0.757994 -6.577901 -22.097822 -0.194000 2.836800 -7.824700 0.568842 1.176536 -3.490626 -1.689362 0.883155 2.638703 7.152907 -5.780975 9.780455 2.464400 -2.725900 1.632300 -77.435973 -4.716250 33.173395 13.989557 -18.737497 -2.273498 0.585579 0.368376 -11.910160 -7.125000 0.000000 0.000000 84.194025 -4.801344 22.974936 -16.717967 20.239482 -4.097713 1.594920 1.133628 -0.844927 7.125000 0.000000 0.000000 
8.498836 18.105444 4.895102 -3.331084 -2.986402 3.692182 -9.424349 3.537673 -2.879999 -0.465103 4.094662 8.393214 0.615691 -1.620370 0.641914 4.360700 12.625600 37.982500 20.064981 -2.727403 -10.717480 -1.670766 -10.448558 25.922990 -0.792753 -6.266015 -22.254348 -0.138400 2.398000 -6.607100 0.527662 1.201848 -3.511853 -1.675236 0.888975 2.663884 7.072367 -5.469344 9.926582 2.412700 -2.562600 1.681300 -77.455070 -4.610339 32.610793 13.712223 -18.387335 -2.199799 0.607317 0.365358 -11.326488 -7.125000 0.000000 0.000000 84.250900 -4.918522 23.010634 -16.704166 20.216604 -4.078116 1.600747 1.108416 -0.732442 7.125000 0.000000 0.000000 
8.499624 18.103967 4.910959 -3.465954 -3.045546 3.629505 -9.269245 3.601495 -2.653985 -0.475284 4.035863 8.234811 0.588441 -1.417051 0.475479 4.116100 12.313400 36.849800 20.351008 -2.768316 -10.434169 -1.671152 -10.472764 25.968996 -0.799301 -6.196859 -22.306471 -0.115000 2.185900 -6.019700 0.549890 1.191816 -3.544151 -1.673922 0.882587 2.664971 7.266586 -5.425017 10.045154 2.448100 -2.529900 1.763500 -77.505276 -4.483213 32.055441 13.419691 -18.015546 -2.120735 0.622238 0.362252 -10.860046 -7.125000 0.000000 0.000000 84.208211 -5.050330 23.199209 -16.725242 20.252047 -4.097217 1.597146 1.124119 -0.650773 7.125000 0.000000 0.000000 
8.499919 18.105050 4.924946 -3.633385 -3.097513 3.595460 -9.065026 3.670125 -2.481178 -0.483053 3.989558 8.117161 0.562733 -1.228869 0.304542 3.878000 11.996300 35.718900 20.690001 -2.769720 -10.157048 -1.658354 -10.457758 25.895833 -0.788676 -6.119127 -22.151179 -0.102800 2.067700 -5.692700 0.569956 1.198947 -3.608422 -1.708530 0.885923 2.570735 7.494083 -5.415643 10.580353 2.476500 -2.499200 2.023200 -77.462397 -4.158246 32.057710 13.396684 -17.981331 -2.107032 0.603191 0.368294 -11.213015 -7.125000 0.000000 0.000000 84.249725 -5.365711 23.311021 -16.850681 20.409556 -4.155463 1.594886 1.134596 -0.816693 7.125000 0.000000 0.000000 
8.502381 18.106725 4.939818 -3.624703 -3.084295 3.527192 -9.112028 3.693253 -2.275824 -0.487322 3.940470 7.976705 0.557061 -1.187631 0.351887 4.067900 12.250300 36.623100 20.763748 -2.935849 -9.831313 -1.642414 -10.416179 25.764539 -0.796212 -5.894351 -22.063158 -0.077900 1.800300 -4.954000 0.528038 1.216383 -3.664182 -1.757873 0.886456 2.487125 7.154858 -5.431999 11.035313 2.293600 -2.489600 2.193100 -77.328873 -3.761897 32.389556 13.505782 -18.112850 -2.127207 0.574562 0.373910 -11.905454 -7.125000 0.000000 0.000000 84.426692 -5.765942 23.172195 -17.015009 20.597711 -4.205569 1.591642 1.119904 -1.032909 7.125000 0.000000 0.000000 
8.503169 18.105838 4.959517 -3.532670 -3.118637 3.436209 -9.251814 3.781779 -2.029398 -0.491601 3.881808 7.803363 0.551855 -1.148534 0.448666 4.288200 12.534300 37.649400 20.749954 -3.090411 -9.414944 -1.614412 -10.360425 25.588173 -0.804677 -5.806929 -22.102377 -0.065300 1.649300 -4.537500 0.465360 1.285549 -3.687052 -1.792956 0.913405 2.497895 7.091678 -5.479816 11.535178 2.240500 -2.496800 2.379900 -77.220287 -3.566495 32.470341 13.423996 -18.004400 -2.096029 0.560392 0.371432 -12.054275 -7.125000 0.000000 0.000000 84.613578 -6.079875 22.848935 -17.147871 20.740893 -4.236516 1.586564 1.099519 -0.965085 7.125000 0.000000 0.000000 
8.497851 18.101898 4.977542 -3.591431 -3.252868 3.441053 -9.129450 3.943098 -1.919454 -0.495678 3.830148 7.669950 0.531275 -0.994673 0.459153 4.208900 12.433300 37.282600 21.025442 -3.009451 -9.058982 -1.562308 -10.271099 25.286253 -0.762238 -6.096929 -21.874198 -0.108600 2.125200 -5.851700 0.435742 1.421749 -3.746646 -1.808172 0.977734 2.517723 7.115047 -5.341093 11.612559 2.238300 -2.425000 2.372400 -77.155549 -3.484468 32.266731 13.154963 -17.658399 -2.020784 0.571324 0.364986 -11.670661 -7.125000 0.000000 0.000000 84.793664 -6.312185 22.472394 -17.191686 20.787904 -4.249788 1.590507 1.086045 -0.822678 7.125000 0.000000 0.000000 
8.488100 18.096678 4.990149 -3.737854 -3.360019 3.507141 -8.845249 4.142123 -1.941742 -0.492604 3.789459 7.587379 0.519937 -0.908947 0.550543 4.122500 12.321600 36.879500 21.422821 -2.396484 -8.562840 -1.390892 -9.949733 24.257289 -0.619191 -7.422926 -21.347664 -0.230800 3.092200 -8.535600 0.426361 1.543378 -3.820086 -1.823646 1.038479 2.547436 7.280672 -5.060228 11.279127 2.295700 -2.293300 2.200200 -77.098413 -3.258594 31.951828 13.065232 -17.546374 -1.994484 0.576234 0.356286 -11.270988 -7.125000 0.000000 0.000000 84.925176 -6.346949 22.124693 -17.068866 20.649481 -4.213456 1.597818 1.088837 -0.792718 7.125000 0.000000 0.000000 
8.484061 18.092640 5.008666 -3.733020 -3.362400 3.503536 -8.792678 4.356442 -1.831745 -0.492005 3.718874 7.402881 0.519138 -0.899168 0.667907 4.027500 12.196900 36.432000 21.581826 -2.486046 -8.147904 -1.406896 -9.994684 24.378681 -0.680118 -6.925436 -21.685544 -0.109400 2.132500 -5.872000 0.395541 1.608744 -3.834645 -1.868546 1.070709 2.689590 7.741256 -4.892286 11.228134 2.474800 -2.208100 2.174400 -77.082707 -2.937809 31.616898 13.170821 -17.688972 -2.013986 0.558722 0.344977 -11.005206 -7.125000 0.000000 0.000000 84.995310 -6.320647 21.809868 -16.940794 20.497454 -4.162013 1.596207 1.090641 -0.767094 7.125000 0.000000 0.000000 
8.485440 18.090473 5.035161 -3.607316 -3.340872 3.379632 -8.975363 4.550762 -1.511844 -0.495196 3.615451 7.111676 0.523625 -0.934024 0.756163 4.036000 12.208100 36.472300 21.529363 -2.475588 -7.269977 -1.272021 -9.711676 23.505610 -0.613491 -7.551667 -21.467411 -0.120200 2.235300 -6.156400 0.324909 1.648742 -3.825983 -1.945066 1.084228 2.837642 7.988511 -4.825813 11.511198 2.558800 -2.163300 2.272800 -77.025162 -2.638683 31.455678 13.207085 -17.738760 -2.017536 0.544987 0.339283 -10.894860 -7.125000 0.000000 0.000000 85.105894 -6.487352 21.668148 -16.948902 20.499187 -4.150206 1.585734 1.088578 -0.912898 7.125000 0.000000 0.000000 
